<svg id="OBJECTS" xmlns="http://www.w3.org/2000/svg" viewBox="0 0 188.43 147.36"><defs><style>.cls-1{fill:#d4d8f3;opacity:0.44;}.cls-2{fill:#4c557a;}.cls-3{fill:#fefffa;}.cls-4{fill:#d4dde4;}.cls-5{fill:#fcfffe;}.cls-6{fill:#d79f59;}.cls-7{fill:#ffc78a;}.cls-8{fill:#ffb266;}.cls-10,.cls-9{fill:none;stroke:#4f4f7f;stroke-linecap:round;stroke-linejoin:round;stroke-width:0.71px;}.cls-10{stroke-dasharray:4.03 4.03;}.cls-11{fill:#78b0ca;}.cls-12{fill:#e8505b;}.cls-13{fill:#263238;}.cls-14{opacity:0.25;}.cls-15{fill:#fafafa;}.cls-16{fill:#455a64;}.cls-17{fill:#ebebeb;}</style></defs><title>contact-portflio</title><path class="cls-1" d="M64.56,112.13l-4-.49a1.8,1.8,0,0,1-1.53-1.37c-.13-.54-.27-1.07-.44-1.59a1.8,1.8,0,0,1,.6-2l3.16-2.47a1.82,1.82,0,0,0,.31-2.55L57,94.44a1.8,1.8,0,0,0-2.54-.31L51.3,96.6a1.79,1.79,0,0,1-2,.11q-.7-.43-1.44-.81a1.82,1.82,0,0,1-1-1.82l.49-4a1.81,1.81,0,0,0-1.58-2L36.62,87a1.81,1.81,0,0,0-2,1.58l-.49,4a1.79,1.79,0,0,1-1.37,1.53c-.53.13-1.06.28-1.58.44a1.81,1.81,0,0,1-2-.6l-2.47-3.16a1.8,1.8,0,0,0-2.54-.31l-7.26,5.67a1.8,1.8,0,0,0-.31,2.54l2.47,3.17a1.79,1.79,0,0,1,.11,2.06c-.29.46-.56.94-.81,1.43a1.8,1.8,0,0,1-1.82,1l-4-.49a1.82,1.82,0,0,0-2,1.58l-1.12,9.14a1.81,1.81,0,0,0,1.58,2l4,.49a1.79,1.79,0,0,1,1.53,1.37q.19.81.45,1.59a1.81,1.81,0,0,1-.6,2l-3.17,2.47a1.82,1.82,0,0,0-.31,2.55l5.67,7.25a1.82,1.82,0,0,0,2.55.31L24.27,134a1.81,1.81,0,0,1,2.06-.11c.46.29.94.56,1.43.81a1.79,1.79,0,0,1,1,1.82l-.48,4a1.8,1.8,0,0,0,1.58,2L39,143.67a1.82,1.82,0,0,0,2-1.58l.48-4a1.8,1.8,0,0,1,1.38-1.53c.53-.13,1.06-.28,1.58-.45a1.79,1.79,0,0,1,2,.61l2.48,3.16a1.8,1.8,0,0,0,2.54.31l7.25-5.67A1.83,1.83,0,0,0,59,132l-2.48-3.16a1.81,1.81,0,0,1-.11-2.05c.29-.47.56-1,.82-1.44a1.79,1.79,0,0,1,1.81-1l4,.49a1.82,1.82,0,0,0,2-1.58l1.11-9.14A1.8,1.8,0,0,0,64.56,112.13ZM45.5,121.62a9.75,9.75,0,0,1-17.31-6.24,8.63,8.63,0,0,1,2.12-5.87,9.75,9.75,0,0,1,17.31,6.24A8.63,8.63,0,0,1,45.5,121.62Z"/><path class="cls-1" d="M107.75,57l-2.2-.27a1,1,0,0,1-.84-.75,8.84,8.84,0,0,0-.25-.88A1,1,0,0,1,104.8,54l1.74-1.36a1,1,0,0,0,.17-1.41l-3.13-4a1,1,0,0,0-1.4-.17l-1.75,1.36a1,1,0,0,1-1.13.06c-.26-.16-.52-.31-.79-.45a1,1,0,0,1-.54-1l.27-2.2a1,1,0,0,0-.87-1.11l-5-.62a1,1,0,0,0-1.12.87l-.27,2.2a1,1,0,0,1-.75.85c-.3.07-.59.15-.88.24A1,1,0,0,1,88.22,47l-1.36-1.75A1,1,0,0,0,85.45,45l-4,3.13a1,1,0,0,0-.17,1.41l1.36,1.74a1,1,0,0,1,.06,1.14c-.16.25-.31.52-.45.79a1,1,0,0,1-1,.53l-2.2-.27a1,1,0,0,0-1.11.87l-.62,5a1,1,0,0,0,.87,1.11l2.2.27a1,1,0,0,1,.84.76c.07.29.16.59.25.87a1,1,0,0,1-.33,1.09L79.4,64.9a1,1,0,0,0-.17,1.4l3.13,4a1,1,0,0,0,1.4.17l1.75-1.37a1,1,0,0,1,1.13-.06c.26.16.53.31.8.45a1,1,0,0,1,.53,1l-.27,2.2a1,1,0,0,0,.87,1.12l5.05.61a1,1,0,0,0,1.11-.87l.27-2.2a1,1,0,0,1,.76-.84c.29-.07.59-.15.87-.24a1,1,0,0,1,1.09.33l1.37,1.74a1,1,0,0,0,1.4.18l4-3.14a1,1,0,0,0,.17-1.4l-1.37-1.75a1,1,0,0,1-.06-1.13c.16-.26.31-.52.45-.79a1,1,0,0,1,1-.53l2.2.26a1,1,0,0,0,1.12-.87l.61-5A1,1,0,0,0,107.75,57ZM97.23,62.26a5.38,5.38,0,0,1-9.56-3.44,4.74,4.74,0,0,1,1.17-3.24A5.38,5.38,0,0,1,98.4,59,4.73,4.73,0,0,1,97.23,62.26Z"/><rect class="cls-2" x="110.04" y="31.28" width="63.97" height="113.12" rx="9.06" transform="translate(10.49 -15.04) rotate(6.3)"/><rect class="cls-3" x="116.56" y="40.62" width="51.49" height="89.28" transform="translate(10.21 -15.09) rotate(6.3)"/><rect class="cls-4" x="139.14" y="35.05" width="17.1" height="2.9" transform="translate(4.89 -15.97) rotate(6.3)"/><circle class="cls-5" cx="136.66" cy="136.45" r="5.19"/><polygon class="cls-6" points="68.89 1.27 22.8 10.74 33.04 15.19 39.29 28.55 48.13 20.35 52.46 24 68.89 1.27"/><polygon class="cls-7" points="41.94 15.14 52.46 24 68.89 1.27 41.94 15.14"/><polygon class="cls-7" points="22.8 10.74 33.04 15.19 68.89 1.27 22.8 10.74"/><polygon class="cls-8" points="41.94 15.14 39.29 28.55 48.13 20.35 41.94 15.14"/><path class="cls-9" d="M30.42,27.1c-.63.22-1.25.46-1.87.72"/><path class="cls-10" d="M25,29.67c-10.19,6.25-16.37,19-11.58,30.67,4.47,10.89,16.66,17.52,28.43,17.14,4.77-.15,9.67-1.39,13.33-4.46S61,64.83,59.63,60.25s-6.74-7.84-11.19-6.09c-5.15,2-6.33,9.63-2.95,14,6.4,8.32,18.77,4.63,26.41-1"/><path class="cls-9" d="M73.49,65.92c.52-.44,1-.89,1.47-1.35"/><polygon class="cls-11" points="51.13 108.86 108.37 108.44 109.96 147.36 50.7 146.81 51.13 108.86"/><path class="cls-12" d="M51.13,108.86,78.22,86.94a3.12,3.12,0,0,1,3.93,0l26.22,21.5"/><path class="cls-11" d="M51.13,108.86,78.22,86.94a3.12,3.12,0,0,1,3.93,0l26.22,21.5"/><path class="cls-13" d="M50.7,146.81c-.07-.07,4.51-5.07,10.23-11.17s10.42-11,10.49-10.94-4.51,5.07-10.23,11.18S50.77,146.88,50.7,146.81Z"/><path class="cls-13" d="M110,147.36c-.07.06-4.53-4.84-10-11s-9.78-11.12-9.7-11.18,4.53,4.83,10,11S110,147.29,110,147.36Z"/><g class="cls-14"><polyline points="108.37 108.44 79.63 131.41 51.13 108.86"/></g><polygon class="cls-15" points="54.02 110.99 53.93 93.11 104.04 92.52 104.61 111.33 79.63 131.1 54.02 110.99"/><path class="cls-13" d="M54,111l.47.36,1.35,1.06,5.18,4,18.64,14.61h-.07l25-19.78,0,0c-.11-3.59-.23-7.35-.34-11.18-.08-2.58-.16-5.13-.23-7.63l.06.06-50.11.57,0,0c0,5.63,0,10.09,0,13.15,0,1.53,0,2.71,0,3.51V111s0-.1,0-.31v-.9c0-.8,0-2,0-3.5,0-3.07,0-7.54-.08-13.17v0h0L104,92.46h.06v.07c.07,2.49.15,5,.22,7.62.12,3.83.23,7.6.34,11.19v0l0,0-25,19.76,0,0,0,0L61,116.48l-5.15-4.06-1.35-1.07Z"/><path class="cls-13" d="M96.12,101.52s-7.66.11-17.11.17-17.12.07-17.12,0,7.66-.11,17.11-.17S96.12,101.48,96.12,101.52Z"/><path class="cls-13" d="M96.12,106.57s-7.66.11-17.11.17-17.12.07-17.12,0,7.66-.11,17.11-.17S96.12,106.53,96.12,106.57Z"/><path class="cls-13" d="M96.12,112.39s-7.66.11-17.11.17-17.12.07-17.12,0,7.66-.11,17.11-.17S96.12,112.35,96.12,112.39Z"/><path class="cls-13" d="M96.12,118.21s-7.31.11-16.33.16-16.33.07-16.33,0,7.31-.11,16.33-.17S96.12,118.17,96.12,118.21Z"/><path class="cls-13" d="M89.71,123.32h-.2l-.57,0-2.12,0-7,.1c-2.73,0-5.2.06-7,.06h-2.7l.58,0,2.11,0,7-.1c2.73,0,5.2-.06,7-.06h2.69Z"/><path class="cls-13" d="M83.26,128.23s-1.63.06-3.65.06-3.65,0-3.65-.06,1.63-.07,3.65-.07S83.26,128.19,83.26,128.23Z"/><circle class="cls-13" cx="100.13" cy="118.21" r="6.05"/><circle class="cls-16" cx="98.55" cy="118.21" r="6.05"/><path class="cls-17" d="M99.32,115.39v5h-.93v-4.25H97.32v-.78Z"/></svg>