<?xml version="1.0" encoding="utf-8"?>
<!-- Generator: Adobe Illustrator 23.0.1, SVG Export Plug-In . SVG Version: 6.00 Build 0)  -->
<svg version="1.1" id="Layer_1" xmlns="http://www.w3.org/2000/svg" xmlns:xlink="http://www.w3.org/1999/xlink" x="0px" y="0px"
	 viewBox="0 0 683.8 429.1" style="enable-background:new 0 0 683.8 429.1;" xml:space="preserve">
<style type="text/css">
	.st0{opacity:0.22;}
	.st1{fill:#7F7F7F;}
	.st2{font-family:'Montserrat-ExtraBold';}
	.st3{font-size:25.44px;}
	.st4{fill:#B83D5D;}
	.st5{fill:#EFC09C;}
	.st6{fill:#D6AB8E;}
	.st7{fill:none;stroke:#C87E84;stroke-width:0.5;stroke-miterlimit:10;}
	.st8{fill:none;stroke:#B83D5D;stroke-miterlimit:10;}
	.st9{fill:#36364F;}
	.st10{fill:none;stroke:#FFFFFF;stroke-width:4;stroke-miterlimit:10;}
	.st11{fill:#9A304F;}
	.st12{fill:#C33E5D;}
	.st13{fill:#EBA154;}
	.st14{opacity:0.5;fill:#D9751F;enable-background:new    ;}
	.st15{fill:none;stroke:#DC831E;stroke-width:3;stroke-miterlimit:10;}
	.st16{fill:#FFFFFF;}
	.st17{font-family:'Montserrat-Bold';}
	.st18{font-size:44.39px;}
	.st19{fill:#80ABBD;}
	.st20{fill:#4B7195;}
	.st21{opacity:0.4;fill:#5A93A0;enable-background:new    ;}
	.st22{opacity:0.4;fill:#A3D5E6;enable-background:new    ;}
	.st23{fill:#47547C;}
	.st24{opacity:0.5;fill:#2B2B3F;enable-background:new    ;}
	.st25{fill:none;stroke:#FD783D;stroke-miterlimit:10;stroke-dasharray:4;}
	.st26{fill:#49496B;}
	.st27{fill:#64648E;}
	.st28{fill:none;}
	.st29{fill:none;stroke:#FD783D;stroke-miterlimit:10;}
	.st30{fill:none;stroke:#FD783D;stroke-miterlimit:10;stroke-dasharray:3.83,3.83;}
	.st31{fill:none;stroke:#FD783D;stroke-miterlimit:10;stroke-dasharray:4.12,4.12;}
	.st32{fill:none;stroke:#FD783D;stroke-miterlimit:10;stroke-dasharray:3.89,3.89;}
	.st33{font-size:15.61px;}
	.st34{font-size:13.84px;}
	.st35{fill:#54B3CD;}
	.st36{fill:none;stroke:#FD783D;stroke-miterlimit:10;stroke-dasharray:3.38,3.38;}
	.st37{fill:none;stroke:#FD783D;stroke-miterlimit:10;stroke-dasharray:3.81,3.81;}
	.st38{fill:none;stroke:#FD783D;stroke-miterlimit:10;stroke-dasharray:4.06,4.06;}
	.st39{font-size:18.43px;}
	.st40{opacity:0.22;fill:#7F7F7F;enable-background:new    ;}
	.st41{font-size:26.41px;}
	.st42{fill:#FD783D;}
	.st43{fill:none;stroke:#FD783D;stroke-miterlimit:10;stroke-dasharray:5.07,5.07;}
	.st44{fill:none;stroke:#FD783D;stroke-miterlimit:10;stroke-dasharray:3.74,3.74;}
	.st45{fill:none;stroke:#FD783D;stroke-miterlimit:10;stroke-dasharray:3.4,3.4;}
	.st46{fill:#0C8068;}
	.st47{fill:none;stroke:#0A6D53;stroke-miterlimit:10;}
	.st48{opacity:0.5;fill:#0A6D53;enable-background:new    ;}
	.st49{fill:#159A7A;}
	.st50{fill:none;stroke:#0C8068;stroke-miterlimit:10;}
	.st51{opacity:0.5;fill:#0C8068;enable-background:new    ;}
	.st52{fill:#DC831E;}
</style>
<title>molo landing</title>
<g id="OBJECTS">
	<g class="st0">
		<text transform="matrix(1 0 0 1 278.1884 243.77)" class="st1 st2 st3">&lt;/&gt;</text>
	</g>
	<path class="st4" d="M432,149.7c-1.5,32.7-33.6,57.7-57.6,59.2c-31.8,2-54.5-26.7-57.7-59.2c-2.8-28.2,7.3-27.8,14.7-39.5
		c9-14.2,25.9-22.1,42.9-22.1C406.2,88,434,105.7,432,149.7z"/>
	<rect x="352" y="205.9" class="st5" width="44.7" height="55.9"/>
	<path class="st5" d="M424.6,173.2c8-12.1,18.1-12.6,22.4,1.7s-9.7,26.1-21.1,21.7S424.6,173.2,424.6,173.2z"/>
	<path class="st6" d="M434,173.5c5.3-1,8.1,14.9-3.6,15.5l2.4-5.5l-2.3-4.6L434,173.5z"/>
	<path class="st7" d="M428.6,191.2c6.8-7.3,1.9-12.4,1.9-12.4s6.5-13.3,9.1-3.1"/>
	<path class="st5" d="M323.8,173.2c-8-12.1-18.1-12.6-22.4,1.7s9.7,26.1,21.1,21.7S323.8,173.2,323.8,173.2z"/>
	<path class="st6" d="M314.4,173.5c-5.3-1-8.1,14.9,3.6,15.5l-2.4-5.5l2.3-4.6L314.4,173.5z"/>
	<path class="st7" d="M319.8,191.2c-6.8-7.3-1.9-12.4-1.9-12.4s-6.5-13.3-9.1-3.1"/>
	<path class="st6" d="M396.7,207.1v20.8c-16.1,21.8-44.7,14.7-44.7,14.7l0.5-35.5L396.7,207.1z"/>
	<path class="st5" d="M358.7,114.7H390c18,0,32.6,14.6,32.6,32.6v35.3c0,26.7-21.6,48.3-48.3,48.3l0,0c-26.7,0-48.3-21.6-48.3-48.3
		v-35.3C326.1,129.3,340.7,114.7,358.7,114.7C358.7,114.7,358.7,114.7,358.7,114.7z"/>
	<path class="st8" d="M381.8,188.9c-0.3,4.1-3.9,7.2-8,6.9c-3.7-0.3-6.6-3.2-6.9-6.9"/>
	<path class="st4" d="M331.2,116.9c0,0-8.5-14,2.1-26.4C333.3,90.5,341,104.6,331.2,116.9z"/>
	<path class="st4" d="M335.5,113.5c0,0-11.8,11.4-26.2,3.8C309.3,117.3,321.3,106.8,335.5,113.5z"/>
	<path class="st9" d="M355.2,171.6c0,4-1.7,7.2-3.8,7.2s-3.8-3.2-3.8-7.2s1.7-7.2,3.8-7.2S355.2,167.6,355.2,171.6z"/>
	
		<ellipse transform="matrix(0.2622 -0.965 0.965 0.2622 92.7269 463.4245)" class="st10" cx="349.4" cy="171.1" rx="19.4" ry="19.4"/>
	<path class="st9" d="M401.1,171.6c0,4-1.7,7.2-3.8,7.2s-3.8-3.2-3.8-7.2s1.7-7.2,3.8-7.2S401.1,167.6,401.1,171.6z"/>
	
		<ellipse transform="matrix(0.2669 -0.9637 0.9637 0.2669 127.8849 510.2221)" class="st10" cx="399.3" cy="171.1" rx="19.4" ry="19.4"/>
	<path class="st4" d="M332.1,128.5c0,0,30.7-16.2,51.1-4.4s22.7,35.9,42.8,29.7c0,0,15.3-6.7-1.5-30.2s-28.3-28-50.2-22.9
		S338,109.7,332.1,128.5z"/>
	<path class="st11" d="M330.9,128.3c0,0,10.1-13.4,24.3-17s29.9,13.9,29.9,13.9S348.7,120,330.9,128.3z"/>
	<path class="st4" d="M326.1,145.1c0,0,3.4,24.9,0,40.1C326.1,185.3,321.2,146.6,326.1,145.1z"/>
	<path class="st4" d="M422.3,145.1c0,0-3.4,24.9,0,40.1C422.3,185.3,427.3,146.6,422.3,145.1z"/>
	<path class="st4" d="M360,143.2c-5.3-2.5-14.6-5.3-23.3,0.9c-0.9,0.6-1.2,1.9-0.5,2.8c0.3,0.5,0.8,0.8,1.4,0.9
		c3.7,0.6,7.5,1,11.3,0.9c3.6-0.1,7.3-0.7,10.8-1.7c1.1-0.2,1.8-1.3,1.5-2.4C361.1,144,360.6,143.5,360,143.2z"/>
	<path class="st4" d="M411,143.2c-5.3-2.5-14.6-5.3-23.3,0.9c-0.9,0.6-1.2,1.9-0.5,2.8c0.3,0.5,0.8,0.8,1.4,0.9
		c3.7,0.6,7.5,1,11.3,0.9c3.6-0.1,7.3-0.7,10.8-1.7c1.1-0.2,1.8-1.3,1.5-2.4C412,144,411.6,143.5,411,143.2z"/>
	<path class="st12" d="M390.7,206.4c-0.5,1-1.2,1.9-1.9,2.8c-2.6,3.1-7,6.1-14.5,6.2l0,0h-0.5l0,0c-7-0.1-11.4-2.8-14-5.7
		c-0.9-1-1.7-2.1-2.3-3.3c-0.7-1.3-1.3-2.8-1.6-4.3l36.5,0.1C392,203.6,391.5,205.1,390.7,206.4z"/>
	<path class="st9" d="M390.7,206.4c-0.5,1-1.2,1.9-1.9,2.8c-9.3-4.2-19.9-4-29.1,0.5c-0.9-1-1.7-2.1-2.3-3.3
		c-0.7-1.3-1.3-2.8-1.6-4.3l36.5,0.1C392,203.6,391.5,205.1,390.7,206.4z"/>
	<path class="st13" d="M529.4,400.8l-327,0.3c0,0,6.1-12.8,14.9-29.7l2-3.8c12-22.9,28.1-51.8,40.7-67.4c14.5-18,48.8-30.9,72-37.9
		c13.6-4.1,23.4-6.2,23.4-6.2H393c0,0,8.8,1.9,21.3,5.6c23.3,6.9,58,21,74.1,38.5c3.8,4.2,7.1,8.8,10,13.7
		C518.2,346.8,529.4,400.8,529.4,400.8z"/>
	<path class="st14" d="M529.4,400.8l-327,0.3c0,0,6.1-12.8,14.9-29.7c163.2,48,249.1-30.6,268.8-51.9c3.2-3.4,7.6-5.5,12.3-5.6h0.1
		C518.2,346.8,529.4,400.8,529.4,400.8z"/>
	<line class="st10" x1="369.2" y1="174.4" x2="379.5" y2="174.4"/>
	<path class="st5" d="M414.3,261.6c-40.5,44.5-82.2,0.6-82.2,0.6c13.6-4.1,23.4-6.2,23.4-6.2H393C393,256,401.8,257.9,414.3,261.6z"
		/>
	<line class="st15" x1="285" y1="350.4" x2="285" y2="401.1"/>
	<line class="st15" x1="285" y1="382.7" x2="271.4" y2="365.4"/>
	<line class="st15" x1="462.8" y1="350.4" x2="462.8" y2="401.1"/>
	<line class="st15" x1="462.8" y1="382.7" x2="474.9" y2="367.3"/>
	<path class="st15" d="M330.1,281.6c0,0,50.2,34.3,84.2-1.7"/>
	<text transform="matrix(1 0 0 1 417.6884 352.03)" class="st16 st17 st18">x</text>
	<path class="st4" d="M330.9,107.5C342.2,60.1,455,65.3,434,157.5c-6.3,27.6-52.3-62.8-92-40.6c-3,1.7-6.7,1.2-9.1-1.1l0,0
		C330.6,113.7,330.2,110.5,330.9,107.5z"/>
	<path class="st19" d="M392.9,400.8h-0.1c-0.3,0-0.6,0-0.8,0H173c-5.1,0-9.2-4.1-9.2-9.2v-0.1l-34.1-96.4c-2.1-5.9,1-12.4,6.9-14.4
		c1.2-0.4,2.5-0.7,3.8-0.7h142.2c4.8,0,9.1,3,10.7,7.5l36.8,103.8l0.1,0.2h62.2C397.9,391.6,398.5,400.2,392.9,400.8z"/>
	
		<ellipse transform="matrix(0.9456 -0.3252 0.3252 0.9456 -100.1165 88.2842)" class="st16" cx="214" cy="343.6" rx="16.5" ry="20"/>
	<path class="st20" d="M392.2,391.6H330l0-0.2l-36.8-103.8c-1.6-4.5-5.9-7.5-10.7-7.5h-4.8c0,0,10.6,0.7,13.3,10.2
		s39,110.3,39,110.3l2.7,0.2H392c0.3,0,0.6,0,0.8,0C398.5,400.3,398,391.6,392.2,391.6z"/>
	<path class="st21" d="M392.9,400.8h-0.1c-0.3,0-0.6,0-0.8,0H173c-2.8,0-5.4-1.3-7.2-3.5C295.2,408.4,282.5,280,282.5,280
		c4.8,0,9.1,3,10.7,7.5l36.8,103.8l0.1,0.2h61.2C391.8,394.7,392.4,397.7,392.9,400.8z"/>
	<path class="st20" d="M132.5,337.2v3.2c-5.8,0.7-7.2,5.6-7.2,11.6v2c0,6,1.4,10.9,7.2,11.6v3.2H21.1c-4.6,0-8.3-3.7-8.3-8.3v-15
		c0-4.6,3.7-8.3,8.3-8.3c0,0,0,0,0,0L132.5,337.2z"/>
	<path class="st16" d="M130.8,362.3c0.5,1.2-0.1,2.6-1.3,3.1c-0.3,0.1-0.6,0.2-0.9,0.2l-106.4,0.1v-25.3l106.4,0.1
		c0.6,0,1.2,0.2,1.6,0.6c0.8,0.6,1.1,1.7,0.7,2.7c-0.9,2.1-0.9,5-0.9,8.3v2C130,357.3,129.9,360.2,130.8,362.3z"/>
	<path class="st22" d="M130.1,341.1c-2,0.1-96.1,5-102.6,14.1c-1.8,2.5-3.7,3.9-5.5,4.1v-18.9l106.4,0.1
		C129.1,340.5,129.7,340.7,130.1,341.1z"/>
	<path class="st20" d="M18.2,337.2h9.4l0,0v31.6l0,0h-9.4c-2.9,0-5.3-2.4-5.3-5.3v-20.9C12.8,339.6,15.2,337.2,18.2,337.2z"/>
	<path class="st22" d="M130.8,362.3c0.5,1.2-0.1,2.6-1.3,3.1c-0.3,0.1-0.6,0.2-0.9,0.2h-21.3c16.9-1.9,15.8-15.8,15.8-15.8
		c0.2-0.7-13.3-8.8-13.1-9.4h18.5c0.6,0,1.2,0.2,1.6,0.6c0.8,0.6,1.1,1.7,0.7,2.7c-0.9,2.1-0.9,5-0.9,8.3v2
		C130,357.3,129.9,360.2,130.8,362.3z"/>
	<rect x="27.7" y="351.2" class="st22" width="102.2" height="2.3"/>
	<rect x="27.7" y="346" class="st22" width="102.2" height="2.3"/>
	<rect x="27.7" y="357.7" class="st22" width="102.2" height="2.3"/>
	<polygon class="st12" points="97,361 91.6,355.5 86.1,361 86.1,346 97,346 	"/>
	<path class="st12" d="M144.4,368.7v3.2c-5.8,0.7-7.3,5.6-7.3,11.6v2c0,6,1.4,10.9,7.3,11.6v3.2H33c-4.6,0-8.3-3.7-8.3-8.3v-15
		c0-4.6,3.7-8.3,8.3-8.3L144.4,368.7z"/>
	<path class="st16" d="M142.7,393.8c0.5,1.2-0.1,2.6-1.3,3.1c-0.3,0.1-0.6,0.2-0.9,0.2L34,397.2v-25.3l106.4,0.1
		c0.6,0,1.2,0.2,1.6,0.6c0.8,0.7,1.1,1.8,0.7,2.7c-0.9,2.1-0.9,5-0.9,8.3v2C141.8,388.8,141.8,391.7,142.7,393.8z"/>
	<path class="st22" d="M142,372.5c-2.1,0.1-96.1,5-102.6,14.1c-1.8,2.5-3.7,3.9-5.5,4.1v-18.9l106.4,0.1
		C141,372,141.6,372.2,142,372.5z"/>
	<path class="st12" d="M30.1,368.7h9.4l0,0v31.6l0,0h-9.4c-2.9,0-5.3-2.4-5.3-5.3v-20.9C24.8,371.1,27.1,368.7,30.1,368.7
		C30.1,368.7,30.1,368.7,30.1,368.7z"/>
	<path class="st22" d="M142.7,393.8c0.5,1.2-0.1,2.6-1.3,3.1c-0.3,0.1-0.6,0.2-0.9,0.2h-21.2c16.9-1.9,15.8-15.8,15.8-15.8
		c0.2-0.7-13.3-8.8-13.1-9.4h18.5c0.6,0,1.2,0.2,1.6,0.6c0.8,0.7,1.1,1.8,0.7,2.7c-0.9,2.1-0.9,5-0.9,8.3v2
		C141.8,388.8,141.8,391.7,142.7,393.8z"/>
	<rect x="39.6" y="382.7" class="st22" width="102.2" height="2.3"/>
	<rect x="39.6" y="377.5" class="st22" width="102.2" height="2.3"/>
	<rect x="39.6" y="389.2" class="st22" width="102.2" height="2.3"/>
	<polygon class="st12" points="130.6,394.4 124.9,388.7 119.2,394.4 119.2,378.7 130.6,378.7 	"/>
	<path class="st23" d="M683.8,414v2.3c0,7.1-5.7,12.8-12.8,12.8H17c-5.8,0-10.9-3.9-12.4-9.5l0,0c-0.3-1-0.4-2.1-0.4-3.2v-2.3
		c0-7.1,5.7-12.8,12.7-12.8c0,0,0,0,0,0h654C678,401.2,683.8,406.9,683.8,414C683.8,414,683.8,414,683.8,414z"/>
	<path class="st24" d="M683.8,414v2.3c0,7.1-5.7,12.8-12.8,12.8H17c-5.8,0-10.9-3.9-12.4-9.5l0,0c-0.3-2-0.4-3.2-0.4-3.2
		C371,429.1,671,401.3,671,401.3C678.1,401.3,683.8,407,683.8,414z"/>
	<path class="st13" d="M667.5,63.6c0-0.1,0-0.2,0-0.2s0-0.1,0-0.2c1.2-0.6,2.4-1.2,3.6-1.9c1.3-0.9,2.6-1.9,3.8-3l-0.3-1
		c-0.3-1.2-0.7-2.3-1.1-3.4c-0.2-0.5-0.5-1.1-0.8-1.6c-0.2-0.5-0.5-1.1-0.8-1.6l-0.5-0.9c-1.6,0-3.2,0.2-4.8,0.5
		c-1.3,0.3-2.6,0.7-3.9,1.2l-0.3-0.3c1.1-2.8,1.6-5.7,1.7-8.7l-0.9-0.5c-0.5-0.3-1-0.6-1.6-0.9c-0.5-0.3-1.1-0.5-1.6-0.8
		c-1.1-0.4-2.2-0.8-3.4-1.1l-1-0.3c-1.1,1.2-2.1,2.4-3,3.8c-0.8,1.1-1.4,2.3-2,3.6h-0.2H650c-0.6-1.2-1.2-2.4-2-3.6
		c-0.9-1.3-1.9-2.6-3-3.8l-1,0.3c-1.1,0.3-2.3,0.7-3.4,1.1c-0.5,0.2-1.1,0.5-1.6,0.8c-0.5,0.2-1.1,0.5-1.6,0.9l-0.9,0.5
		c0,1.6,0.2,3.2,0.5,4.8c0.3,1.3,0.7,2.6,1.2,3.9l-0.3,0.3c-1.3-0.5-2.6-0.9-3.9-1.2c-1.6-0.3-3.2-0.5-4.8-0.5l-0.5,0.9
		c-0.3,0.5-0.6,1-0.8,1.6c-0.3,0.5-0.5,1.1-0.8,1.6c-0.5,1.1-0.8,2.2-1.1,3.4l-0.3,1c1.2,1.1,2.4,2.1,3.8,3c1.1,0.7,2.3,1.4,3.6,1.9
		c0,0.1,0,0.1,0,0.2s0,0.2,0,0.2c-1.2,0.6-2.4,1.2-3.6,2c-1.3,0.9-2.6,1.9-3.8,3l0.3,1c0.3,1.2,0.7,2.3,1.1,3.4
		c0.2,0.5,0.5,1.1,0.8,1.6c0.3,0.5,0.5,1.1,0.8,1.6l0.5,0.9c1.6,0,3.2-0.2,4.8-0.5c1.3-0.3,2.6-0.7,3.9-1.2l0.3,0.3
		c-0.5,1.3-0.9,2.6-1.2,3.9c-0.3,1.6-0.5,3.2-0.5,4.8l0.9,0.6c0.5,0.3,1,0.6,1.6,0.8c0.5,0.3,1.1,0.5,1.6,0.8
		c1.1,0.5,2.2,0.8,3.4,1.1l1,0.3c2.1-2.1,3.8-4.6,5-7.3h0.2h0.2c0.6,1.2,1.2,2.4,2,3.6c0.9,1.3,1.9,2.6,3,3.8l1-0.3
		c1.1-0.3,2.3-0.7,3.4-1.1c0.5-0.2,1.1-0.5,1.6-0.8c0.5-0.2,1.1-0.5,1.6-0.8l0.9-0.6c0-3-0.6-5.9-1.7-8.7c0.1-0.1,0.2-0.2,0.3-0.3
		c1.3,0.5,2.6,0.9,3.9,1.2c1.6,0.3,3.2,0.5,4.8,0.5l0.5-0.9c0.3-0.5,0.6-1,0.8-1.6c0.3-0.5,0.5-1.1,0.8-1.6c0.4-1.1,0.8-2.2,1.1-3.4
		l0.3-1c-1.2-1.1-2.4-2.1-3.8-3C670,64.9,668.8,64.2,667.5,63.6z M650.3,71.6c-4.6,0-8.3-3.7-8.3-8.3s3.7-8.3,8.3-8.3
		s8.3,3.7,8.3,8.3l0,0C658.5,67.9,654.8,71.6,650.3,71.6C650.3,71.6,650.3,71.6,650.3,71.6L650.3,71.6z"/>
	<polyline class="st25" points="626.6,76.1 570.9,76.1 570.9,131 586.4,131 	"/>
	<rect x="587.7" y="160.3" class="st16" width="30.6" height="5.5"/>
	<rect x="587.7" y="170.5" class="st16" width="47.1" height="5.5"/>
	<rect x="587.7" y="180.6" class="st16" width="16" height="5.5"/>
	<rect x="610.3" y="180.6" class="st13" width="16" height="5.5"/>
	<rect x="632" y="180.6" class="st13" width="23" height="5.5"/>
	<rect x="641.1" y="170.5" class="st13" width="14" height="5.5"/>
	<rect x="624.5" y="160.3" class="st13" width="30.6" height="5.5"/>
	<rect x="665.3" y="124.9" class="st16" width="1" height="61"/>
	<rect x="588.2" y="127.1" class="st16" width="31.5" height="5.6"/>
	<rect x="588.2" y="137.5" class="st16" width="48.4" height="5.6"/>
	<rect x="588.2" y="148" class="st16" width="16.5" height="5.6"/>
	<rect x="611.4" y="148" class="st13" width="16.5" height="5.6"/>
	<rect x="633.8" y="148" class="st13" width="23.7" height="5.6"/>
	<rect x="643.1" y="137.5" class="st13" width="14.4" height="5.6"/>
	<rect x="626" y="127.1" class="st13" width="31.5" height="5.6"/>
	<rect x="458.1" y="22.3" class="st26" width="90.6" height="178"/>
	<rect x="468.4" y="60.1" class="st16" width="68" height="7.2"/>
	<rect x="468.4" y="76.1" class="st16" width="45" height="7.2"/>
	<rect x="520.1" y="76.1" class="st13" width="16.3" height="7.2"/>
	<rect x="494.3" y="92.1" class="st13" width="42.2" height="7.2"/>
	<rect x="468.4" y="92.1" class="st16" width="19.7" height="7.2"/>
	<rect x="468.4" y="108.1" class="st16" width="36" height="7.2"/>
	<rect x="509.9" y="108.1" class="st13" width="26.5" height="7.2"/>
	<rect x="488.1" y="124.1" class="st13" width="48.3" height="7.2"/>
	<rect x="468.4" y="124.1" class="st16" width="14.6" height="7.2"/>
	<rect x="468.4" y="140.1" class="st16" width="29.2" height="7.2"/>
	<rect x="502.4" y="140.1" class="st13" width="34" height="7.2"/>
	<path class="st13" d="M534.4,182.7v2l-7.4,2.9v-2l5.2-1.9l-5.2-1.8v-2L534.4,182.7z"/>
	<path class="st13" d="M513.2,179.9v2l-5.2,1.9l5.2,1.9v2l-7.5-2.8v-2L513.2,179.9z"/>
	<path class="st13" d="M522,174.4h2.3l-5.5,15.8h-2.3L522,174.4z"/>
	<path class="st13" d="M500.2,43.8v2.7l-9.8,3.7v-2.6l6.8-2.5l-6.8-2.5v-2.5L500.2,43.8z"/>
	<path class="st13" d="M482.3,40.1v2.5l-6.8,2.5l6.8,2.5v2.6l-9.8-3.7v-2.7L482.3,40.1z"/>
	<path class="st27" d="M38.9,204.6c-1.9-1.8-4-3.3-6.4-4.4l-0.1-0.1c-5.8-2.6-12.4-2.7-18.2-0.3l-0.5,0.2
		c-11.5,5.1-16.6,18.6-11.5,30c5.1,11.5,18.6,16.6,30,11.5c10.4-4.6,15.8-16.2,12.6-27.2c-0.3-1-0.6-2-1.1-2.9
		C42.6,209,40.9,206.6,38.9,204.6z M29.4,235.3c-8,3.6-17.3,0-20.8-8c-2-4.6-1.8-9.8,0.7-14.2l0-0.1c1.7-2.9,4.2-5.2,7.3-6.6
		c0.6-0.3,1.2-0.5,1.8-0.7l0.2-0.1c3.1-0.9,6.4-0.8,9.5,0.2l0,0c2.6,0.9,4.9,2.4,6.7,4.4c1.1,1.2,2,2.6,2.7,4.1
		c0.4,0.9,0.8,1.9,1,2.9C40,224.7,36.3,232.2,29.4,235.3z"/>
	<path class="st13" d="M32.5,200.2c5,2.3,9,6.3,11.2,11.4c0.4,0.9,0.8,1.9,1.1,2.9l-6.4,2.9c-0.2-1-0.6-2-1-2.9
		c-0.7-1.5-1.6-2.9-2.7-4.1c-1.8-2-4.1-3.5-6.7-4.4l0,0L32.5,200.2"/>
	<line class="st28" x1="32.5" y1="200.2" x2="28" y2="205.9"/>
	<path class="st4" d="M28,205.9L28,205.9c-3-1-6.3-1.1-9.4-0.2l-0.2,0.1l-4.2-5.9c5.8-2.4,12.5-2.3,18.2,0.3"/>
	<line class="st29" x1="24.7" y1="243.6" x2="24.7" y2="245.6"/>
	<line class="st30" x1="24.7" y1="249.4" x2="24.7" y2="278.1"/>
	<polyline class="st29" points="24.7,280.1 24.7,282.1 26.7,282.1 	"/>
	<line class="st31" x1="30.9" y1="282.1" x2="86.4" y2="282.1"/>
	<polyline class="st29" points="88.5,282.1 90.5,282.1 90.5,280.1 	"/>
	<line class="st32" x1="90.5" y1="276.2" x2="90.5" y2="247"/>
	<line class="st29" x1="90.5" y1="245" x2="90.5" y2="243"/>
	<rect x="66.5" y="11.2" class="st26" width="192.9" height="229.9"/>
	<rect x="66.5" class="st27" width="192.9" height="29.2"/>
	<path class="st13" d="M237,225.3v1.9l-6.9,2.6V228l4.9-1.8l-4.9-1.8v-1.8L237,225.3z"/>
	<path class="st13" d="M217.3,222.7v1.8l-4.9,1.8l4.9,1.8v1.8l-6.9-2.6v-1.9L217.3,222.7z"/>
	<text transform="matrix(1 0 0 1 220.8784 230.7)" class="st13 st17 st33">/</text>
	<path class="st13" d="M112.2,47.8v2.4l-8.6,3.3v-2.3l6-2.2l-6-2.2v-2.3L112.2,47.8z"/>
	<path class="st13" d="M96.3,44.5v2.3l-6,2.2l6,2.2v2.3l-8.7-3.3v-2.4L96.3,44.5z"/>
	<text transform="matrix(1 0 0 1 78.1984 20.77)" class="st16 st17 st34">W</text>
	<text transform="matrix(1 0 0 1 94.0884 20.77)" class="st16 st17 st34">EB D</text>
	<text transform="matrix(1 0 0 1 129.3184 20.77)" class="st16 st17 st34">E</text>
	<text transform="matrix(1 0 0 1 138.4684 20.77)" class="st16 st17 st34">V</text>
	<text transform="matrix(1 0 0 1 148.5884 20.77)" class="st16 st17 st34">E</text>
	<text transform="matrix(1 0 0 1 157.8784 20.77)" class="st16 st17 st34">L</text>
	<text transform="matrix(1 0 0 1 166.0784 20.77)" class="st16 st17 st34">O</text>
	<text transform="matrix(1 0 0 1 177.7584 20.77)" class="st16 st17 st34">P</text>
	<text transform="matrix(1 0 0 1 187.7584 20.77)" class="st16 st17 st34">ING</text>
	<rect x="99.8" y="67.5" class="st35" width="56.7" height="10.4"/>
	<rect x="164.5" y="67.5" class="st13" width="28.3" height="10.4"/>
	<rect x="199.4" y="67.5" class="st16" width="39" height="10.4"/>
	<rect x="99.8" y="86" class="st35" width="26.5" height="10.4"/>
	<rect x="133.5" y="86" class="st13" width="45.2" height="10.4"/>
	<rect x="186" y="86" class="st16" width="52.4" height="10.4"/>
	<rect x="99.8" y="104.5" class="st35" width="34.8" height="10.4"/>
	<rect x="140.3" y="104.5" class="st13" width="65.5" height="10.4"/>
	<rect x="212.9" y="104.5" class="st16" width="25.6" height="10.4"/>
	<rect x="99.8" y="123.1" class="st35" width="43.9" height="10.4"/>
	<rect x="150.2" y="123.1" class="st13" width="42.6" height="10.4"/>
	<rect x="199.4" y="123.1" class="st16" width="39" height="10.4"/>
	<rect x="99.8" y="141.6" class="st35" width="19.3" height="10.4"/>
	<rect x="125.6" y="141.6" class="st13" width="38.2" height="10.4"/>
	<rect x="169.7" y="141.6" class="st16" width="68.8" height="10.4"/>
	<rect x="99.8" y="160.1" class="st35" width="55.1" height="10.4"/>
	<rect x="161.7" y="160.1" class="st13" width="16.9" height="10.4"/>
	<rect x="186" y="160.1" class="st16" width="52.4" height="10.4"/>
	<rect x="99.8" y="178.7" class="st35" width="71.7" height="10.4"/>
	<rect x="177.6" y="178.7" class="st13" width="29.3" height="10.4"/>
	<rect x="212.9" y="178.7" class="st16" width="25.6" height="10.4"/>
	<rect x="99.8" y="197.2" class="st35" width="22" height="10.4"/>
	<rect x="128.2" y="197.2" class="st13" width="26.7" height="10.4"/>
	<rect x="161.7" y="197.2" class="st16" width="76.7" height="10.4"/>
	<rect x="246" y="67.5" class="st16" width="2.1" height="140.1"/>
	<circle class="st16" cx="82" cy="72.6" r="5.2"/>
	<circle class="st16" cx="82" cy="91.2" r="5.2"/>
	<circle class="st16" cx="82" cy="109.7" r="5.2"/>
	<circle class="st16" cx="82" cy="128.3" r="5.2"/>
	<circle class="st16" cx="82" cy="146.8" r="5.2"/>
	<circle class="st16" cx="82" cy="165.3" r="5.2"/>
	<circle class="st16" cx="82" cy="183.8" r="5.2"/>
	<circle class="st16" cx="82" cy="202.4" r="5.2"/>
	<path class="st4" d="M250.8,16.2c0,2.9-2.4,5.3-5.3,5.3c-2.9,0-5.3-2.4-5.3-5.3s2.4-5.3,5.3-5.3l0,0
		C248.4,10.9,250.8,13.3,250.8,16.2C250.8,16.2,250.8,16.2,250.8,16.2z"/>
	<path class="st16" d="M237.7,16.1c0,2.9-2.4,5.3-5.3,5.3s-5.3-2.4-5.4-5.3s2.4-5.3,5.3-5.3c0,0,0,0,0,0
		C235.3,10.8,237.7,13.1,237.7,16.1C237.7,16.1,237.7,16.1,237.7,16.1z"/>
	<rect x="285" y="38.2" class="st23" width="18.7" height="5.2"/>
	<rect x="285" y="28.9" class="st27" width="57.1" height="5.2"/>
	<line class="st29" x1="318" y1="44.5" x2="318" y2="46.5"/>
	<line class="st36" x1="318" y1="49.8" x2="318" y2="61.7"/>
	<polyline class="st29" points="318,63.3 318,65.3 320,65.3 	"/>
	<line class="st37" x1="323.8" y1="65.3" x2="382.9" y2="65.3"/>
	<polyline class="st29" points="384.8,65.3 386.8,65.3 386.8,63.3 	"/>
	<line class="st38" x1="386.8" y1="59.3" x2="386.8" y2="53.2"/>
	<line class="st29" x1="386.8" y1="51.2" x2="386.8" y2="49.2"/>
	<text transform="matrix(1 0 0 1 285.0084 15.09)" class="st16 st2 st39">C</text>
	<text transform="matrix(1 0 0 1 298.5384 15.09)" class="st16 st2 st39">SS</text>
	<path class="st27" d="M402,27.9c-0.2-0.7-0.5-1.3-0.7-2c-1.6-3.5-4.3-6.3-7.8-7.9c0,0-0.1,0-0.1,0c-4-1.8-8.6-1.9-12.6-0.2
		l-0.3,0.1c-6.7,3-10.5,10.3-9,17.5c1.6,8.6,9.9,14.2,18.5,12.5c6.4-1.2,11.3-6.2,12.5-12.5C402.8,32.9,402.7,30.3,402,27.9z
		 M391.3,42.3c-5.5,2.4-12,0-14.5-5.5c-0.2-0.4-0.4-0.9-0.5-1.4c-0.8-2.8-0.5-5.9,1-8.4v-0.1c1.1-2,2.9-3.6,5-4.6
		c0.4-0.2,0.8-0.3,1.3-0.5c0,0,0.1,0,0.1,0c2.1-0.6,4.4-0.6,6.5,0.1l0,0c1.8,0.6,3.4,1.6,4.7,3c0.8,0.8,1.4,1.8,1.9,2.8
		c0.3,0.6,0.5,1.3,0.7,2C398.6,34.9,396,40.1,391.3,42.3L391.3,42.3z"/>
	<path class="st4" d="M402.3,35.3h-5c0.5-1.8,0.6-3.7,0.2-5.5c-0.2-0.7-0.4-1.4-0.7-2c-0.4-1-1-2-1.8-2.9c-1.3-1.4-2.9-2.5-4.7-3.1
		l0,0c-2.1-0.7-4.4-0.8-6.5-0.1c0,0-0.1,0-0.1,0c-0.4,0.1-0.9,0.3-1.3,0.5c-2.2,1-3.9,2.6-5.1,4.7V27c-1.5,2.6-1.8,5.6-1,8.4h-5
		c-1.4-7.2,2.3-14.5,9.1-17.5l0.3-0.1c4.1-1.7,8.6-1.6,12.6,0.2c0,0,0.1,0,0.1,0c3.5,1.6,6.2,4.4,7.8,7.9c0.3,0.7,0.5,1.3,0.7,2
		C402.7,30.3,402.8,32.9,402.3,35.3z"/>
	<rect x="307.4" y="38.2" class="st27" width="34.7" height="5.2"/>
	<text transform="matrix(1 0 0 1 14.6284 22.27)" class="st40 st2 st41">{ }</text>
	<rect x="14.5" y="51.8" class="st16" width="20.5" height="9.8"/>
	<rect x="14.5" y="69" class="st16" width="20.5" height="9.8"/>
	<rect x="14.5" y="86.1" class="st13" width="20.5" height="9.8"/>
	<rect x="14.5" y="103.2" class="st13" width="20.5" height="9.8"/>
	<rect x="14.5" y="120.3" class="st13" width="20.5" height="9.8"/>
	<rect x="14.5" y="137.5" class="st13" width="20.5" height="9.8"/>
	<rect x="14.5" y="154.6" class="st13" width="20.5" height="9.8"/>
	<path class="st40" d="M615.5,244.6c0-0.1,0-0.1,0-0.2s0-0.1,0-0.2c1.1-0.5,2.1-1,3.1-1.7c1.1-0.8,2.2-1.6,3.2-2.6l-0.2-0.9
		c-0.2-1-0.6-1.9-0.9-2.9c-0.2-0.5-0.4-0.9-0.7-1.4c-0.2-0.5-0.4-0.9-0.7-1.3l-0.5-0.8c-1.4,0-2.8,0.2-4.1,0.4
		c-1.1,0.2-2.3,0.6-3.3,1l-0.3-0.3c0.4-1.1,0.8-2.2,1-3.4c0.3-1.4,0.4-2.7,0.4-4.1l-0.8-0.5c-0.4-0.3-0.9-0.5-1.3-0.7
		c-0.5-0.2-0.9-0.5-1.4-0.6c-0.9-0.4-1.9-0.7-2.9-0.9l-0.9-0.2c-1,1-1.8,2.1-2.6,3.2c-0.6,1-1.2,2-1.7,3.1h-0.2h-0.2
		c-0.5-1.1-1-2.1-1.7-3.1c-0.8-1.1-1.6-2.2-2.6-3.2l-0.9,0.2c-1,0.2-2,0.6-2.9,0.9c-0.5,0.2-0.9,0.4-1.4,0.6
		c-0.5,0.2-0.9,0.5-1.3,0.7l-0.8,0.5c0,1.4,0.2,2.7,0.4,4.1c0.2,1.1,0.6,2.3,1,3.4l-0.3,0.3c-1.1-0.4-2.2-0.8-3.3-1
		c-1.4-0.3-2.7-0.4-4.1-0.4l-0.5,0.8c-0.3,0.4-0.5,0.9-0.7,1.3c-0.2,0.5-0.4,0.9-0.6,1.4c-0.4,0.9-0.7,1.9-0.9,2.9l-0.2,0.9
		c1,1,2.1,1.8,3.2,2.6c1,0.6,2,1.2,3.1,1.7c0,0.1,0,0.1,0,0.2s0,0.1,0,0.2c-1.1,0.5-2.1,1-3.1,1.7c-1.1,0.8-2.2,1.6-3.2,2.6l0.2,0.9
		c0.2,1,0.6,2,0.9,2.9c0.2,0.5,0.4,0.9,0.6,1.4c0.2,0.5,0.5,0.9,0.7,1.3l0.5,0.8c1.4,0,2.8-0.2,4.1-0.4c1.1-0.2,2.3-0.6,3.3-1
		c0.1,0.1,0.2,0.2,0.3,0.3c-0.4,1.1-0.8,2.2-1,3.3c-0.3,1.4-0.4,2.7-0.4,4.1l0.8,0.5c0.4,0.3,0.9,0.5,1.3,0.7
		c0.5,0.2,0.9,0.5,1.4,0.6c0.9,0.4,1.9,0.7,2.9,0.9l0.9,0.2c1-1,1.8-2.1,2.6-3.2c0.6-1,1.2-2,1.7-3.1h0.2h0.2c0.5,1.1,1,2.1,1.7,3.1
		c0.8,1.1,1.6,2.2,2.6,3.2l0.9-0.2c1-0.2,2-0.6,2.9-0.9c0.5-0.2,0.9-0.4,1.4-0.6c0.5-0.2,0.9-0.5,1.3-0.7l0.8-0.5
		c0-1.4-0.2-2.7-0.4-4.1c-0.2-1.1-0.6-2.3-1-3.3c0.1-0.1,0.2-0.2,0.3-0.3c1.1,0.4,2.2,0.8,3.3,1c1.4,0.3,2.7,0.4,4.1,0.4l0.5-0.8
		c0.3-0.4,0.5-0.9,0.7-1.3c0.2-0.5,0.5-0.9,0.7-1.4c0.4-0.9,0.7-1.9,0.9-2.9l0.2-0.9c-1-1-2.1-1.8-3.2-2.6
		C617.5,245.6,616.5,245.1,615.5,244.6z M600.7,251.4c-3.9,0-7.1-3.2-7.1-7.1s3.2-7.1,7.1-7.1s7.1,3.2,7.1,7.1l0,0
		C607.8,248.3,604.6,251.4,600.7,251.4z"/>
	<rect x="541.3" y="218.4" class="st4" width="9.3" height="42"/>
	<rect x="527.5" y="236.9" class="st27" width="10" height="23.5"/>
	<rect x="513.7" y="244.4" class="st42" width="10" height="16"/>
	<line class="st29" x1="511.9" y1="253.7" x2="509.9" y2="253.7"/>
	<line class="st43" x1="504.9" y1="253.7" x2="497.3" y2="253.7"/>
	<polyline class="st29" points="494.7,253.7 492.7,253.7 492.7,255.7 	"/>
	<line class="st44" x1="492.7" y1="259.4" x2="492.7" y2="287.5"/>
	<polyline class="st29" points="492.7,289.3 492.7,291.3 494.7,291.3 	"/>
	<line class="st45" x1="498.1" y1="291.3" x2="510" y2="291.3"/>
	<line class="st29" x1="511.7" y1="291.3" x2="513.7" y2="291.3"/>
	<rect x="516.9" y="289.5" class="st16" width="26.4" height="4.7"/>
	<rect x="516.9" y="298.2" class="st16" width="18.3" height="4.7"/>
	<rect x="516.9" y="306.9" class="st16" width="23.1" height="4.7"/>
	<rect x="544.8" y="306.9" class="st13" width="5.4" height="4.7"/>
	<rect x="555.1" y="306.9" class="st13" width="19.9" height="4.7"/>
	<rect x="541" y="298.2" class="st13" width="34" height="4.7"/>
	<rect x="548.6" y="289.5" class="st13" width="26.4" height="4.7"/>
	<rect x="648.2" y="241.8" class="st4" width="17.4" height="8.3"/>
	<rect x="648.2" y="256.3" class="st4" width="17.4" height="8.3"/>
	<rect x="648.2" y="270.9" class="st4" width="17.4" height="8.3"/>
	<rect x="648.2" y="285.4" class="st4" width="17.4" height="8.3"/>
	<rect x="648.2" y="299.9" class="st16" width="17.4" height="8.3"/>
	<rect x="648.2" y="314.4" class="st16" width="17.4" height="8.3"/>
	<rect x="648.2" y="328.9" class="st16" width="17.4" height="8.3"/>
	<path class="st46" d="M589.7,361.1c-5.8,0.5-11.6-0.8-16.5-3.9c-18.4-11.4-22.2-43.4-22.5-45.8c0.2,0.7,2,4.7,21.1,17.5
		c1.6,1.1,3,2.2,4.4,3.3l0.1,0C592.9,345.9,589.7,361.1,589.7,361.1z"/>
	<path class="st47" d="M550.7,311.2c0,0,17.2,42.1,36.2,46.5"/>
	<path class="st48" d="M589.7,361.1c-5.8,0.5-11.6-0.8-16.5-3.9c3.7-8.6,3-25.1,3-25.1l0.1,0C592.9,345.9,589.7,361.1,589.7,361.1z"
		/>
	<path class="st46" d="M638.5,313.7c-0.1,0.4-0.3,2-0.8,4.3l0,0c-2.7,12.1-12.5,44.8-38.8,41.5c-0.2-2.3-0.1-4.7,0.5-7
		c1.3-6.2,5.5-15.3,18.2-23C636.4,318,638.3,314.4,638.5,313.7z"/>
	<path class="st47" d="M637.6,316.3c0,0-13.5,35-36.9,42.1"/>
	<path class="st48" d="M637.6,318L637.6,318c-2.7,12.1-12.5,44.8-38.8,41.5c-0.2-2.3-0.1-4.7,0.5-7l0,0
		C621.2,353.7,637.6,318,637.6,318z"/>
	<path class="st49" d="M597.4,360.7c-0.7,1.1-10.3-2.9-14.6-14.4l0,0c-2.6-6.9-3.3-16.6,1-29.5c11.3-33.9,6.6-40.3,6.5-40.5
		c7,3.9,12.7,9.7,16.4,16.8v0C613.7,306.1,616.4,327.7,597.4,360.7z"/>
	<path class="st50" d="M590.3,276.2c0,0,14.7,18.6,9.1,53.9s-2,30.6-2,30.6"/>
	<path class="st51" d="M597.4,360.7c-0.7,1.1-10.3-2.9-14.6-14.4c24.2,6.9,23.8-53.2,23.8-53.2v0
		C613.7,306.1,616.4,327.7,597.4,360.7z"/>
	<path class="st46" d="M550.7,311.2v0.1C550.7,311.3,550.7,311.2,550.7,311.2z"/>
	<path class="st13" d="M616.1,360.2v27.1c0,7.9-6.4,14.4-14.4,14.4H589c-5,0-9.7-2.6-12.3-6.9l0,0c-1.4-2.3-2.1-4.8-2.1-7.5v-27.1
		H616.1z"/>
	<path class="st13" d="M573,356.6h44.5c0.6,0,1.1,0.5,1.1,1.1v1.4c0,0.6-0.5,1.1-1.1,1.1H573c-0.6,0-1.1-0.5-1.1-1.1v-1.4
		C572,357.1,572.5,356.6,573,356.6z"/>
	<path class="st52" d="M616.1,360.2v27.1c0,7.9-6.4,14.4-14.4,14.4H589c-5,0-9.7-2.6-12.3-6.9c30.4,9.5,37-12.8,35.8-21.7
		s-12.1-12.9-12.1-12.9L616.1,360.2z"/>
</g>
</svg>
